<?xml version="1.0" encoding="UTF-8" standalone="no"?><!DOCTYPE svg PUBLIC "-//W3C//DTD SVG 1.1//EN" "http://www.w3.org/Graphics/SVG/1.1/DTD/svg11.dtd"><svg width="100%" height="100%" viewBox="0 0 321 173" version="1.1" xmlns="http://www.w3.org/2000/svg" xmlns:xlink="http://www.w3.org/1999/xlink" xml:space="preserve" xmlns:serif="http://www.serif.com/" style="fill-rule:evenodd;clip-rule:evenodd;stroke-linejoin:round;stroke-miterlimit:2;"><g><path d="M141.207,136.314c1.132,0.148 2.303,0.264 3.509,0.341c-0.016,0.039 -0.033,0.078 -0.049,0.117c-2.284,5.494 -4.958,10.903 -6.734,16.595c-0.669,1.575 -1.325,3.37 -2.237,5.138c-0.915,1.775 -1.191,3.646 -2.546,5.275c-0.277,1.595 -1.499,4 -1.88,5.811c-0.146,0.704 0.138,1.678 -0.308,2.041c-0.631,0.513 -2.125,0.607 -3.027,0.356c-0.537,-1.283 -0.166,-2.719 0.283,-4.032c0.434,-1.271 0.886,-2.579 1.38,-3.833c0.241,-0.615 0.974,-1.207 1.238,-1.815c0.501,-1.158 0.502,-2.3 1.141,-3.434c1.313,-2.327 1.998,-4.657 2.904,-7.14c1.388,-3.809 3.068,-7.597 4.52,-11.371c0.52,-1.352 1.14,-2.704 1.806,-4.049Zm38.03,11.619c1.198,0.305 2.547,0.571 4.062,0.792c0.208,0.455 0.418,0.913 0.617,1.375c1.249,2.897 1.792,5.874 2.748,8.753c1.15,3.464 3.017,7.175 4.276,9.887c-4.498,1.62 -3.876,-1.411 -4.414,-2.792c-0.761,-1.962 -2.448,-4.725 -3.08,-6.8c-0.098,-0.323 -0.015,-0.654 -0.097,-0.983c-0.969,-3.906 -2.844,-7.018 -4.112,-10.232Zm-58.947,-21.039c0.509,0.704 1.109,1.426 1.809,2.168c-0.24,0.223 -0.484,0.437 -0.729,0.637c-0.67,0.548 -1.723,0.974 -2.359,1.529c-0.647,0.563 -1.168,1.156 -1.787,1.715c-2.567,2.316 -5.025,4.642 -7.479,6.911c-1.255,1.16 -2.2,2.385 -3.551,3.519c-2.712,2.278 -5.134,4.555 -7.67,6.848c-1.261,1.141 -2.728,2.227 -3.931,3.394c-1.576,1.528 -3.152,3.272 -4.811,4.611c-2.495,2.015 -4.049,4.606 -6.741,6.44c-0.51,0.864 -0.826,1.792 -1.93,2.462c1.044,1.637 -3.847,2.051 -4.241,0.99c-0.099,-0.263 0.473,-0.675 0.879,-1.219c0.71,-0.949 1.309,-1.831 2.049,-2.661c0.428,-0.48 1.099,-0.795 1.572,-1.23c0.9,-0.827 1.757,-2.236 2.453,-3.084c0.981,-1.194 2.927,-2.665 4.242,-3.529c1.091,-1.56 2.878,-3.055 4.358,-4.364c0.456,-0.403 0.616,-0.906 1.048,-1.244c0.45,-0.352 1.227,-0.614 1.644,-0.968c1.907,-1.622 3.411,-3.376 5.216,-5.034c0.899,-0.825 2.015,-1.614 2.978,-2.437c0.989,-0.844 1.467,-1.781 2.406,-2.623c0.572,-0.513 1.475,-0.949 2.025,-1.479c1.703,-1.64 3.555,-3.134 5.123,-4.748c2.137,-2.204 4.851,-4.163 7.122,-6.314l0.305,-0.29Zm101.036,9.972c1.799,0.271 3.62,0.504 5.443,0.684c0.531,0.35 1.068,0.705 1.573,1.078c1.154,0.852 2.736,1.501 3.936,2.32c1.456,0.992 2.397,2.195 3.816,3.153c1.225,0.827 2.992,1.391 4.245,2.184c0.663,0.418 1.037,1.025 1.623,1.481c1.664,1.302 3.931,2.424 5.557,3.804c-0.385,0.298 -0.654,0.675 -1.168,0.808c-2.882,0.745 -3.584,-1.147 -4.913,-2.085c-0.687,-0.486 -1.893,-0.79 -2.408,-1.185c-0.442,-0.339 -0.591,-0.797 -1.002,-1.121c-1.65,-1.305 -4.017,-2.046 -5.318,-2.932c-1.048,-1.131 -2.287,-2.25 -3.817,-3.153c-2.642,-1.559 -5.075,-3.268 -7.567,-5.036Zm-63.14,4.889c-0.88,0.688 -0.863,1.843 -1.261,2.997c-0.569,1.653 -0.917,2.535 -0.45,4.058c0.42,0.047 0.931,0.367 1.622,0.214c-0.139,0.03 0.753,-0.376 0.763,-0.385c0.369,-0.374 -0.04,-1.216 0.117,-2.104c0.323,-1.817 1.839,-3.826 -0.291,-4.854l-0.5,0.074Zm-33.042,-2.094c-0.83,-0.224 -1.606,0.101 -1.979,0.384c-1.215,0.921 -1.719,1.937 -2.953,3.157c-1.01,0.999 -1.727,2.047 -2.382,2.711c-0.633,0.642 -2.489,1.59 -1.809,2.263c1.436,1.425 3.898,-1.495 4.194,-1.799c1.533,-1.574 2.633,-2.927 3.667,-4.353c0.546,-0.75 1.622,-1.487 1.262,-2.363Zm-1.693,-34.378c-1.074,0.454 -2.141,0.909 -3.197,1.364c-2.67,1.152 -5.125,2.321 -7.697,3.588c-2.46,1.213 -5.424,2.26 -8.078,3.463c-3.966,1.797 -7.44,3.607 -11.987,5.039c-4.47,2.37 -10.115,4.356 -14.275,6.828c-2.635,0.83 -4.593,1.881 -6.482,2.955c-3.918,1.094 -7.307,3.081 -11.39,4.678c-2.012,0.788 -4.039,1.402 -5.982,2.245c-1.82,0.791 -3.517,1.687 -5.386,2.521c-2.496,1.115 -5.407,1.902 -7.673,3.04c-0.702,0.352 -0.908,0.824 -1.573,1.23c-1.942,1.187 -4.748,2.025 -7.174,2.967c-1.723,0.67 -4.245,2.314 -5.838,2.133c-1.592,-0.18 -0.724,-1.148 -0.312,-1.767c2.28,-0.998 4.727,-1.829 7.055,-2.768c2.27,-0.915 4.111,-2.225 5.909,-3.141c2.8,-1.426 5.977,-2.479 8.841,-3.848c3.683,-1.76 7.756,-3.249 11.512,-4.878c2.381,-0.672 4.19,-1.826 5.765,-2.395c0.873,-0.484 2.56,-0.73 2.146,-1.043c0.521,-0.133 0.315,0.28 0.691,-0.012c8.952,-4.029 17.634,-8.43 27.047,-12.164c4.131,-1.821 8.084,-3.7 12.392,-5.462c3.378,-1.418 6.807,-3.26 9.781,-4.573l5.905,0Zm71.731,26.036c0.568,0.904 1.038,1.847 1.689,2.715c1.343,1.79 2.113,3.326 3.986,5.034c1.054,0.963 2.917,2.366 -0.595,2.899c-1.457,-1.142 -2.34,-2.603 -3.364,-4.037c-1.006,-1.408 -2.387,-2.743 -3.385,-4.155c0.641,-0.974 1.23,-1.788 1.669,-2.456Zm-109.659,6.95c0.415,-0.373 1.141,-0.582 1.811,-0.993c1.033,-0.635 1.702,-1.67 2.81,-2.411c0.461,-0.308 1.154,-0.509 1.526,-0.77c0.565,-0.398 0.776,-0.864 1.239,-1.181c0.881,-0.606 2.127,-1.16 3.144,-1.827c2.82,-1.847 6.341,-3.975 8.864,-5.664c1.002,-0.671 2.906,-1.357 1.668,-2.151c-2.26,-0.254 -2.863,1.091 -4.195,1.8c-0.504,0.268 -1.208,0.428 -1.716,0.707c-0.657,0.361 -1.082,0.883 -1.74,1.255c-3.1,1.755 -6.072,3.552 -8.672,5.093c-0.327,0.87 -1.903,1.322 -2.907,2.062c-0.537,0.397 -0.801,0.957 -1.358,1.38c-1.657,1.26 -4.915,2.297 -3.739,4.091c2.538,0.167 2.256,-0.481 3.265,-1.391Zm73.829,-2.755l-0.05,0.18c-0.662,0.164 -1.157,0.2 -1.523,0.145c0.521,-0.099 1.045,-0.207 1.573,-0.325Zm102.624,-16.499c0.351,0.135 0.697,0.275 1.037,0.424c4.78,1.059 9.428,2.222 13.973,3.465c0.898,1.05 2.937,1.057 4.435,1.611c0.375,0.139 0.559,0.475 1.048,0.661c1.179,0.444 2.947,0.703 4.292,1.088c1.3,0.371 3.349,0.861 3.387,1.585c0.015,0.268 -0.443,0.843 -1.452,1.031c-1.386,0.258 -3.245,-0.514 -4.413,-0.889c-2.76,-0.889 -5.478,-1.966 -8.201,-2.686c-1.251,-1.04 -3.219,-1.32 -5.176,-1.774c-1.238,-0.287 -2.261,-0.738 -3.409,-1.036c-1.121,-0.292 -2.365,-0.386 -3.481,-0.664c-0.626,-0.157 -1.21,-0.355 -1.807,-0.565c0.045,-0.748 -0.042,-1.501 -0.233,-2.251Zm-201.405,-0.815c1.488,-0.432 4.814,-1.321 4.671,-1.96c-0.239,-1.065 -3.76,0.147 -4.911,0.455c-2.494,0.664 -4.907,1.373 -6.745,1.996c0.009,2.417 4.206,0.317 6.985,-0.491Zm70.037,-11.64l1.758,0.322c-1.297,0.956 -2.561,1.916 -3.925,2.837c-2.791,1.195 -5.513,2.761 -7.48,4.703c-1.179,0.771 -2.296,1.567 -3.297,2.403c-1.034,0.447 -1.46,0.553 -2.955,0.619c-0.735,-0.625 -0.405,-0.855 -0.263,-1.593c2.874,-1.758 5.125,-3.352 8.196,-4.932c0.298,-0.412 0.562,-0.44 0.643,-0.821c2.311,-1.096 4.125,-2.443 5.921,-3.795l1.402,0.257Zm-100.061,-0.686c2.223,0.506 4.447,0.615 6.545,0.489c-2.971,0.596 -5.923,1.224 -8.998,1.679c-9.203,1.362 -18.244,2.825 -27.221,3.938c-2.123,-1.508 1.223,-1.744 4.099,-2.148c2.18,-0.306 4.988,-0.833 6.983,-1.124c6.692,-0.979 12.744,-1.901 18.592,-2.834Zm71.753,-0.591c-3.357,1.075 -6.679,2.223 -9.96,3.41c-2.242,0.81 -4.732,1.844 -7.292,1.894c-1.266,-1.406 1.889,-1.976 3.812,-2.559c2.712,-0.822 4.842,-1.61 7.063,-2.413c2.626,0.071 4.774,-0.332 4.774,-0.332l1.603,0Zm-44.85,-4.123l0.023,0.021c0.481,0.454 1.018,0.94 1.608,1.435c-0.393,0.061 -0.783,0.126 -1.169,0.197c-1.398,0.261 -2.686,0.709 -4.076,0.967c-3.214,0.594 -6.518,0.905 -9.868,1.369l-0.055,0.008c3.136,-0.901 5.188,-1.958 5.188,-1.958c0,0 0.128,-0.223 0.365,-0.559c1.426,-0.2 2.838,-0.412 4.226,-0.653c1.305,-0.226 2.534,-0.535 3.758,-0.827Zm226.383,-8.125c1.49,0.088 2.982,0.175 4.476,0.26c2.599,-0.126 5.285,-0.11 7.962,-0.09c2.318,0.016 4.904,-0.018 7.676,0.133c1.136,0.062 2.267,0.329 3.577,0.378c2.774,0.103 5.189,-0.055 8.153,-0.027c2.636,0.023 5.381,-0.241 4.029,1.398c-2.076,0.819 -4.361,0.414 -6.484,0.416c-2.151,0.002 -4.566,0.272 -6.722,0.178c-0.943,-0.041 -1.794,-0.367 -2.717,-0.413c-0.656,-0.033 -1.393,0.135 -2.05,0.122c-0.876,-0.018 -1.68,-0.246 -2.504,-0.265c-1.015,-0.023 -2.029,0.084 -3.1,0.096c-1.948,0.022 -3.854,-0.146 -5.768,-0.144c-1.091,0.001 -2.183,0.228 -3.242,0.208c-1.026,-0.02 -2.068,-0.1 -3.116,-0.196c-0.047,-0.641 -0.104,-1.328 -0.17,-2.054Zm-254.971,-16.296c-0.011,-0.001 -0.022,-0.002 -0.033,-0.003c-0.04,-0.005 -0.076,-0.016 -0.097,-0.03l-0.003,-0.001l-0.002,-0.003l-0.004,-0.002l-0.001,-0.001l-0.001,-0.002c-0.008,-0.007 -0.01,-0.016 -0.006,-0.024c0.004,-0.008 0.015,-0.016 0.034,-0.023l0,0l0.011,-0.004c-0.004,0.001 -0.008,0.002 -0.011,0.004c-0.019,0.007 -0.03,0.015 -0.034,0.023c-0.004,0.009 -0.002,0.017 0.006,0.024l0.001,0.002l0.005,0.003l0.005,0.004c0.021,0.014 0.057,0.025 0.097,0.03c0.014,0.002 0.029,0.003 0.044,0.003l-0.011,0Zm251.495,-11.651c2.483,-0.522 4.972,-1.02 7.285,-1.441c3.453,-0.63 7.065,-0.695 10.584,-1.295c1.063,-0.181 2.018,-0.534 3.097,-0.73c2.348,-0.429 4.897,-0.544 7.2,-0.975c0.956,-0.179 1.815,-0.525 2.764,-0.681c1.254,-0.206 2.525,-0.078 3.744,-0.282c1.222,-0.204 2.298,-0.83 3.622,-0.718c1.06,0.384 0.757,1.056 0.288,1.681c-1.207,0.068 -2.193,0.78 -3.384,0.954c-0.994,0.146 -1.874,-0.123 -2.791,-0.04c-1.119,0.102 -1.956,0.472 -3.098,0.73c-1.772,0.402 -3.821,0.456 -5.864,0.777c-1.307,0.206 -2.542,0.669 -3.741,0.917c-2.36,0.488 -4.76,0.601 -7.223,0.888c-2.206,0.255 -4.156,0.785 -6.269,1.199c-1.98,0.389 -3.959,0.625 -5.93,1.046c-0.095,-0.681 -0.19,-1.358 -0.284,-2.03Zm-4.396,-22.451c3.482,-1.272 6.582,-2.396 10.231,-3.898c0.417,-0.049 0.814,-0.103 0.785,-0.298c1.577,-0.638 3.629,-1.161 6.173,-2.183c1.496,-0.6 7.679,-3.413 8.272,-1.496c0.283,0.915 -2.309,1.4 -3.979,1.95c-4.695,1.543 -9.099,3.602 -13.991,5.335c-2.069,0.733 -4.083,1.537 -6.142,2.324c-0.17,-1.113 -0.267,-1.734 -0.267,-1.734l-1.082,0Zm-35.455,0c1.598,-1.157 2.978,-2.256 5.112,-3.062c0.87,-0.33 2.289,-0.187 2.504,0.264c0.381,0.808 -2.27,1.826 -3.312,2.485c-0.167,0.106 -0.307,0.209 -0.432,0.313l-3.872,0Zm-25.165,0c1.757,-1.337 3.441,-2.685 5.007,-4.039c0.996,-0.861 1.727,-1.798 2.739,-2.673c4.296,-3.708 9.996,-7.204 13.842,-10.936c5.344,-3.6 10.79,-7.875 15.821,-11.32c0.864,-0.592 1.308,-1.434 2.715,-1.49c0.937,-0.038 1.712,0.301 1.647,0.935c-0.046,0.442 -1.363,1.059 -2.169,1.59c-5.434,3.587 -10.6,8.122 -15.939,11.52c-0.707,0.905 -1.711,1.714 -3.168,2.373c-2.072,2.244 -4.94,4.182 -7.505,6.189c-1.215,0.952 -2.663,1.94 -3.717,2.909c-1.08,0.993 -1.821,1.972 -3.025,2.895c-0.896,0.689 -1.805,1.369 -2.712,2.047l-3.536,0Zm-34.015,0c0.039,-0.092 0.079,-0.184 0.12,-0.277c1.424,-3.224 3.037,-6.533 4.07,-9.853c0.798,-2.569 2.153,-4.837 3.187,-7.365c1.518,-3.707 3.652,-7.185 5.355,-10.859c0.999,-2.153 1.919,-4.59 3.379,-7.302c0.571,-1.058 1.472,-2.38 1.977,-3.558c0.609,-1.423 1.308,-3.211 2.714,-3.394c2.322,-0.302 1.89,1.843 0.693,2.528c-1.805,4.611 -4.636,9.242 -6.449,13.833c-0.622,1.576 -1.838,3.071 -2.547,4.639c-0.437,0.969 -0.728,1.948 -1.118,2.886c-0.514,1.234 -1.469,2.426 -1.952,3.645c-1.982,5.007 -4.061,10.025 -6.108,15.077l-3.321,0Zm-15.931,0c0.173,-0.302 0.493,-0.657 0.578,-0.98c0.246,-0.935 0.029,-2.05 0.142,-3.286c0.096,-1.06 0.543,-2.32 0.474,-3.335c-0.185,-2.698 -0.322,-5.038 -0.175,-7.593c0.101,-1.711 -0.326,-4.165 3.17,-3.643c0.974,1.62 0.172,3.528 0.074,5.339c-0.103,1.902 0.11,3.779 0.172,5.689c0.087,2.694 -0.954,5.371 -1.203,7.809l-3.232,0Zm-16.352,0c-0.412,-1.885 -0.879,-3.822 -1.358,-5.619c-0.888,-3.335 -2.31,-5.972 -3.011,-9.078c-0.065,-0.294 0.001,-0.598 -0.071,-0.896c-0.787,-3.248 -2.897,-6.309 -3.512,-9.638c-0.783,-4.23 -3.257,-8.207 -4.515,-12.029c0.292,-0.538 -0.174,-1.326 0.38,-1.779c0.629,-0.173 1.511,-0.384 2.168,-0.321c1.387,0.593 0.905,1.752 1.242,2.628c0.157,0.406 0.5,0.77 0.669,1.17c2.064,4.888 2.581,9.414 4.826,14.431c0.969,2.165 2.226,4.889 2.652,7.135c0.554,2.914 1.918,5.607 2.628,8.318c0.374,1.419 0.377,2.96 0.863,4.407c0.141,0.42 0.278,0.844 0.411,1.271l-3.372,0Zm-18.119,0c-1.957,-2.359 -3.89,-4.625 -5.982,-6.88c-1.162,-1.251 -2.823,-2.401 -3.316,-3.862c0.421,-0.287 0.597,-0.515 1.216,-0.633c1.651,-0.315 1.823,0.516 2.455,1.359c0.57,0.76 1.606,1.22 2.028,1.696c1.065,1.204 1.883,2.689 3.031,4.086c0.28,0.34 0.836,0.587 1.12,0.922c0.917,1.075 1.553,2.247 2.297,3.312l-2.849,0Zm-24.397,0c-0.759,-0.485 -1.577,-0.948 -2.321,-1.453c-3.115,-2.115 -5.336,-4.632 -8.253,-6.669c-2.773,-1.936 -5.766,-3.764 -8.182,-5.772c-0.884,-0.735 -1.541,-1.441 -2.672,-2.144c-0.944,-0.588 -2.147,-1.119 -3.1,-1.809c-0.772,-0.559 -1.532,-1.414 -2.528,-2.255c-1.499,-1.265 -3.968,-1.767 -2.267,-3.202c2.052,-0.25 2.719,0.654 3.457,1.211c2.484,1.879 4.452,3.471 7.132,5.112c1.67,1.023 2.917,2.203 4.388,3.341c3.206,2.478 6.718,4.813 9.995,7.318c1.136,0.868 1.94,1.846 3.007,2.73c1.413,1.171 3.586,2.023 5.031,3.155c0.179,0.14 0.342,0.286 0.495,0.437l-4.182,0Zm103.037,-15.503c-0.094,0.34 -0.257,0.657 -0.237,1.033c-2.15,2.453 -4.518,5.204 -6.217,7.722c-0.384,0.568 -1.437,1.164 -1.929,1.827c-0.415,0.559 -0.896,1.322 -1.214,1.903c-0.275,0.501 -1.005,1.643 0.645,1.719c1.501,-0.972 2.353,-2.227 3.24,-3.382c0.424,-0.553 1.462,-1.106 1.952,-1.74c1.804,-2.337 3.621,-4.433 5.477,-6.616c0.909,-1.064 1.839,-1.807 0.453,-2.787c-0.526,-0.166 -1.773,0.019 -2.17,0.321Zm-180.745,49.498c-0.012,0.002 -0.023,0.004 -0.033,0.007l0.016,-0.004l0.017,-0.003Zm0.077,0.106c0.005,-0.001 0.011,-0.001 0.016,-0.002c0.02,-0.003 0.039,-0.008 0.055,-0.015c0.004,-0.002 0.008,-0.004 0.011,-0.006c0.016,-0.009 0.029,-0.022 0.037,-0.038l0.003,-0.008l0.003,-0.008c0.003,-0.013 0.004,-0.028 0.002,-0.045c1.825,0.262 3.985,0.18 6.267,0.178c0.504,0.702 0.968,1.4 1.38,2.089c-1.419,-0.065 -2.844,-0.115 -4.285,-0.135c-2.77,-0.036 -5.402,-0.348 -7.914,-0.37c-0.804,-0.007 -1.591,0.17 -2.384,0.172c-1.971,0.003 -3.978,-0.349 -6.032,-0.468c-2.182,-0.127 -4.574,-0.068 -6.341,-0.331c-0.753,-0.112 -3.521,-0.65 -3.195,-1.523c0.566,-1.516 5.071,-0.568 5.506,-0.18c6.479,0.118 10.765,0.782 16.958,0.569l0.003,0l0.004,0l-0.004,0c0,0 -0.148,0.012 -0.148,0.012c0.038,-0.005 0.087,-0.01 0.148,-0.012l0.037,-0.001c0.002,0.017 0.001,0.032 -0.002,0.045l-0.003,0.008l-0.003,0.008c-0.008,0.016 -0.021,0.029 -0.037,0.038l-0.002,0.001l-0.009,0.005c-0.016,0.008 -0.035,0.012 -0.055,0.015c-0.009,0.001 -0.018,0.002 -0.027,0.003l0.011,-0.001Z" style="fill:#cec2c2;"/><g><g><path d="M40.068,29.239c-9.657,0 -16.244,5.614 -16.244,17.067c0,18.639 18.939,25.302 18.939,39.3c0,6.662 -2.995,8.084 -6.139,8.084c-5.913,0 -8.758,-5.839 -8.758,-5.839l-4.042,7.262c0,0 4.267,6.362 12.8,6.362c9.732,0 16.319,-8.009 16.319,-17.067c0,-14.896 -18.939,-23.505 -18.939,-37.578c0,-7.485 3.219,-9.806 6.064,-9.806c1.197,0 2.245,0.225 3.219,0.599c-5.615,12.351 2.17,20.136 2.17,20.136l7.112,-3.368c0,0 -6.288,-6.139 0.374,-18.789c0,0 -4.342,-6.363 -12.875,-6.363Z" style="fill:#ee746b;fill-rule:nonzero;"/><path d="M73.379,55.289c5.988,0 8.758,5.914 8.758,5.914l4.117,-7.336c0,0 -4.342,-6.363 -12.875,-6.363c-9.657,0 -16.244,6.213 -16.244,17.816l0,18.34c0,11.527 6.587,17.74 16.244,17.74c8.533,0 12.875,-6.362 12.875,-6.362l-4.117,-7.261c0,0 -2.77,5.838 -8.758,5.838c-3.144,0 -6.064,-2.694 -6.064,-9.955l0,-18.34c0,-7.336 2.92,-10.031 6.064,-10.031Z" style="fill:#ee746b;fill-rule:nonzero;"/><path d="M108.861,69.587l-8.085,0l0,-22.083l-11.528,0c0,0 1.348,1.722 1.348,10.106l0,43.192l10.18,0l0,-23.43l8.085,0l0,23.43l10.18,0l0,-53.298l-10.18,0l0,22.083Z" style="fill:#ee746b;fill-rule:nonzero;"/><path d="M140.675,87.777l8.758,0l1.197,-9.807l6.363,0l1.348,9.807l8.758,0l-6.288,-40.273l-15.57,0c0,0 1.197,1.871 0.449,7.71l-5.015,32.563Zm13.174,-34.21l2.471,18.565l-4.866,0l2.395,-18.565Zm11.902,38.551c-6.213,5.989 -19.612,3.144 -30.391,1.647l0,-46.261l-11.528,0c0,0 1.347,1.722 1.347,10.106l0,43.192c20.361,0 24.553,4.042 34.359,4.042c6.363,0 9.881,-5.764 6.213,-12.726Z" style="fill:#ee746b;fill-rule:nonzero;"/><path d="M228.556,107.614c-14.747,0 -28.221,4.79 -37.803,11.228c-4.192,-1.347 -8.533,-2.545 -12.95,-3.743c3.593,-5.689 5.764,-13.324 5.764,-23.355l0,-7.036l5.614,0c9.657,0 14.073,-4.941 14.073,-13.4l0,-10.405c0,-8.459 -4.416,-13.399 -14.073,-13.399l-17.142,0c0,0 1.348,1.722 1.348,10.106l0,38.7c0,6.737 -1.348,12.352 -3.593,16.918c-8.459,-1.872 -17.068,-3.144 -25.451,-3.144c-28.67,0 -26.2,21.633 -1.498,21.633c10.48,0 23.056,-2.769 31.44,-11.827c3.518,1.048 7.111,2.171 10.704,3.368c-4.715,4.192 -7.71,8.759 -8.458,12.876c-1.497,8.533 9.581,8.608 9.581,8.608c0,0 -1.197,-6.587 3.968,-14.447c0.973,-1.572 2.171,-2.994 3.368,-4.342c13.4,4.192 27.098,7.935 39.524,7.935c17.367,0 24.254,-7.71 24.254,-13.1c0,-7.71 -9.582,-13.174 -28.67,-13.174Zm-44.989,-52.325l5.614,0c1.722,0 3.893,0.449 3.893,3.518l0,14.672c0,2.994 -2.171,3.443 -3.893,3.443l-5.614,0l0,-21.633Zm-37.054,73.209c-15.495,0 -16.543,-14.597 -1.422,-14.597c6.513,0 13.923,1.572 22.008,3.818c-5.465,7.261 -13.474,10.779 -20.586,10.779Zm87.432,2.022c-8.309,0 -21.034,-4.492 -35.556,-9.208c8.833,-7.036 20.286,-10.405 29.269,-10.405c24.328,0 21.783,19.613 6.287,19.613Z" style="fill:#ee746b;fill-rule:nonzero;"/><path d="M205.049,87.777l8.758,0l1.197,-9.807l6.363,0l1.348,9.807l8.758,0l-6.288,-40.273l-15.57,0c0,0 1.198,1.871 0.449,7.71l-5.015,32.563Zm13.174,-34.21l2.471,18.565l-4.866,0l2.395,-18.565Z" style="fill:#ee746b;fill-rule:nonzero;"/><path d="M251.609,87.777l8.758,0l1.197,-9.807l6.363,0l1.348,9.807l8.758,0l-6.288,-40.273l-15.57,0c0,0 1.198,1.871 0.449,7.71l-5.015,32.563Zm13.174,-34.21l2.471,18.565l-4.866,0l2.395,-18.565Zm11.902,38.551c-6.213,5.989 -19.612,3.144 -30.391,1.647l0,-46.261l-11.528,0c0,0 1.347,1.722 1.347,10.106l0,43.192c20.361,0 24.553,4.042 34.359,4.042c6.363,0 9.881,-5.764 6.213,-12.726Z" style="fill:#ee746b;fill-rule:nonzero;"/></g><g><path d="M194.111,99.888c-0.287,0.288 -0.647,0.508 -1.078,0.66c-0.432,0.153 -0.891,0.229 -1.379,0.229l-3.36,0l0,-9.308l3.36,0c0.496,0 0.954,0.072 1.372,0.216c0.419,0.144 0.806,0.394 1.164,0.752c0.357,0.357 0.59,0.771 0.699,1.242c0.109,0.47 0.163,1.076 0.163,1.817l0,1.176c0,0.758 -0.054,1.381 -0.163,1.87c-0.109,0.488 -0.368,0.936 -0.778,1.346Zm-1.268,-6.223c-0.157,-0.191 -0.344,-0.335 -0.562,-0.431c-0.218,-0.096 -0.484,-0.144 -0.797,-0.144l-1.373,0l0,6.066l1.373,0c0.592,0 1.008,-0.146 1.248,-0.438c0.24,-0.292 0.384,-0.61 0.431,-0.954c0.048,-0.345 0.072,-0.904 0.072,-1.68c0,-0.75 -0.024,-1.288 -0.072,-1.615c-0.047,-0.326 -0.154,-0.594 -0.32,-0.804Z" style="fill:#9d9c9c;fill-rule:nonzero;"/><path d="M196.778,100.777l0,-9.308l6.131,0l0,1.621l-4.314,0l0,2.183l3.674,0l0,1.621l-3.674,0l0,2.262l4.314,0l0,1.621l-6.131,0Z" style="fill:#9d9c9c;fill-rule:nonzero;"/><path d="M207.119,100.855c-0.741,0 -1.382,-0.091 -1.922,-0.274c-0.541,-0.183 -1.033,-0.501 -1.477,-0.954l1.176,-1.177c0.279,0.279 0.608,0.479 0.987,0.601c0.379,0.122 0.8,0.183 1.262,0.183c1.098,0 1.647,-0.383 1.647,-1.15c0,-0.34 -0.07,-0.575 -0.209,-0.706c-0.14,-0.131 -0.275,-0.224 -0.406,-0.281c-0.13,-0.057 -0.296,-0.098 -0.496,-0.124l-1.125,-0.157c-0.793,-0.113 -1.403,-0.381 -1.83,-0.804c-0.427,-0.423 -0.64,-1.022 -0.64,-1.798c0,-0.845 0.289,-1.527 0.869,-2.045c0.58,-0.519 1.37,-0.778 2.373,-0.778c0.653,0 1.218,0.083 1.693,0.248c0.475,0.166 0.912,0.445 1.313,0.837l-1.15,1.137c-0.261,-0.244 -0.556,-0.412 -0.882,-0.503c-0.327,-0.092 -0.669,-0.137 -1.027,-0.137c-0.47,0 -0.828,0.109 -1.072,0.326c-0.244,0.218 -0.366,0.502 -0.366,0.85c0,0.14 0.02,0.262 0.059,0.366c0.039,0.105 0.137,0.229 0.294,0.373c0.157,0.144 0.419,0.242 0.785,0.294l1.098,0.157c0.784,0.113 1.34,0.32 1.667,0.621c0.326,0.3 0.546,0.614 0.66,0.941c0.113,0.327 0.17,0.704 0.17,1.131c0,0.88 -0.323,1.571 -0.968,2.072c-0.645,0.501 -1.473,0.751 -2.483,0.751Z" style="fill:#9d9c9c;fill-rule:nonzero;"/><rect x="212.151" y="91.469" width="1.817" height="9.308" style="fill:#9d9c9c;fill-rule:nonzero;"/><path d="M221.747,99.797c-0.358,0.366 -0.758,0.634 -1.203,0.803c-0.444,0.17 -0.919,0.255 -1.425,0.255c-0.497,0 -0.956,-0.087 -1.379,-0.261c-0.423,-0.174 -0.824,-0.451 -1.203,-0.83c-0.379,-0.379 -0.614,-0.824 -0.706,-1.334c-0.091,-0.509 -0.137,-1.279 -0.137,-2.307c0,-1.02 0.048,-1.789 0.144,-2.307c0.096,-0.519 0.333,-0.968 0.712,-1.347c0.38,-0.379 0.772,-0.653 1.177,-0.823c0.405,-0.17 0.869,-0.255 1.392,-0.255c1.02,0 1.824,0.283 2.412,0.85c0.588,0.566 0.952,1.276 1.092,2.13l-1.83,0c-0.218,-0.906 -0.776,-1.359 -1.674,-1.359c-0.488,0 -0.85,0.133 -1.085,0.399c-0.235,0.265 -0.381,0.562 -0.438,0.888c-0.056,0.327 -0.085,0.935 -0.085,1.824c0,0.915 0.026,1.53 0.079,1.843c0.052,0.314 0.196,0.604 0.431,0.87c0.235,0.265 0.601,0.398 1.098,0.398c0.541,0 0.926,-0.126 1.157,-0.379c0.231,-0.252 0.381,-0.488 0.451,-0.706c0.07,-0.218 0.105,-0.444 0.105,-0.679l0,-0.353l-1.713,0l0,-1.517l3.517,0l0,1.36c0,0.68 -0.068,1.237 -0.203,1.673c-0.135,0.436 -0.364,0.824 -0.686,1.164Z" style="fill:#9d9c9c;fill-rule:nonzero;"/><path d="M229.852,100.777l-3.687,-5.713l0,5.713l-1.817,0l0,-9.308l1.621,0l3.687,5.7l0,-5.7l1.817,0l0,9.308l-1.621,0Z" style="fill:#9d9c9c;fill-rule:nonzero;"/></g></g></g></svg>